<svg xmlns="http://www.w3.org/2000/svg" xmlns:svg="http://www.w3.org/2000/svg" xmlns:xlink="http://www.w3.org/1999/xlink" id="svg5" width="192" height="192" version="1.1"><defs id="defs2"><linearGradient id="linearGradient2074"><stop style="stop-color:#00bdf9;stop-opacity:1" id="stop2070" offset="0"/><stop style="stop-color:#4242ff;stop-opacity:1" id="stop2072" offset="1"/></linearGradient><linearGradient id="linearGradient1988" x1="0" x2="192" y1="192" y2="0" gradientUnits="userSpaceOnUse" xlink:href="#linearGradient2074"/><linearGradient id="linearGradient2591" x1="0" x2="192" y1="0" y2="192" gradientUnits="userSpaceOnUse" xlink:href="#linearGradient2074"/><linearGradient id="linearGradient857" x1="184" x2="152" y1="184" y2="152" gradientUnits="userSpaceOnUse" xlink:href="#linearGradient2074"/></defs><g id="layer1"><path style="fill:none;stroke:url(#linearGradient857);stroke-width:24;stroke-linecap:round;stroke-linejoin:miter;stroke-miterlimit:4;stroke-dasharray:none;stroke-opacity:1" id="path979" d="M 172,172 152,152"/><path id="path1950" style="fill:url(#linearGradient1988);fill-opacity:1;stroke:none;stroke-width:24;stroke-linecap:round;stroke-linejoin:round;stroke-miterlimit:4;stroke-dasharray:none;stroke-opacity:1" d="M 96,8 A 88,88 0 0 0 8,96 88,88 0 0 0 96,184 88,88 0 0 0 184,96 88,88 0 0 0 96,8 Z m 0,56 A 32,32 0 0 1 128,96 32,32 0 0 1 96,128 32,32 0 0 1 64,96 32,32 0 0 1 96,64 Z"/><path id="path2191" style="fill:url(#linearGradient2591);fill-opacity:1;stroke:none;stroke-width:24;stroke-linecap:round;stroke-linejoin:round;stroke-miterlimit:4;stroke-dasharray:none;stroke-opacity:1" d="M 96,32 A 64,64 0 0 0 32,96 64,64 0 0 0 96,160 64,64 0 0 0 160,96 64,64 0 0 0 96,32 Z m 0,32 A 32,32 0 0 1 128,96 32,32 0 0 1 96,128 32,32 0 0 1 64,96 32,32 0 0 1 96,64 Z"/></g></svg>