<svg xmlns="http://www.w3.org/2000/svg" xmlns:svg="http://www.w3.org/2000/svg" xmlns:xlink="http://www.w3.org/1999/xlink" id="svg5" width="240" height="240" version="1.1"><defs id="defs2"><linearGradient id="linearGradient1055"><stop style="stop-color:#000;stop-opacity:1" id="stop1051" offset="0"/><stop style="stop-color:#666;stop-opacity:1" id="stop1053" offset="1"/></linearGradient><linearGradient id="linearGradient1057" x1="40" x2="200" y1="200" y2="40" gradientUnits="userSpaceOnUse" xlink:href="#linearGradient1055"/></defs><g id="layer1"><rect style="fill:#fff;stroke:none;stroke-width:20;stroke-linecap:round;stroke-linejoin:round;stroke-dasharray:none;stroke-dashoffset:0;stroke-opacity:1;fill-opacity:1" id="rect3675" width="240" height="240" x="0" y="0" ry="20"/><path style="fill:url(#linearGradient1057);fill-opacity:1;stroke:none;stroke-width:1px;stroke-linecap:butt;stroke-linejoin:miter;stroke-opacity:1" id="path750" d="m 40,200 c 0,0 27.376519,-74.91768 80,-110 30,-20 80,-50 80,-50 0,0 -10,50 -50,90 -35.35534,35.35534 -40,40 -110,70"/><path style="fill:none;stroke:#333;stroke-width:20;stroke-linecap:round;stroke-linejoin:miter;stroke-dasharray:none;stroke-dashoffset:0;stroke-opacity:1" id="path859" d="m 50,60 c 0,0 50,-20 70,60 20,80 70,60 70,60"/><path style="fill:none;stroke:#333;stroke-width:20;stroke-linecap:round;stroke-linejoin:round;stroke-dasharray:none;stroke-opacity:1" id="path3490" d="M 70,50 50,60 70,70"/><path style="fill:none;stroke:#333;stroke-width:20;stroke-linecap:round;stroke-linejoin:round;stroke-dasharray:none;stroke-opacity:1" id="path3492" d="m 170,170 20,10 -20,10"/></g></svg>